<svg width="24" height="24" viewBox="0 0 24 24" fill="none" xmlns="http://www.w3.org/2000/svg">
<path fill-rule="evenodd" clip-rule="evenodd" d="M5.576 4.52416C6.88295 3.58063 8.75637 3.49638 10.1537 4.30684C10.3061 4.39522 10.4847 4.42715 10.6583 4.39702C12.3572 4.10215 14.153 4.38393 15.6612 5.20567L15.6651 5.20777C17.353 6.11454 18.6804 7.67529 19.2969 9.48851L19.2981 9.49195C19.7215 10.7177 19.8211 12.0555 19.5999 13.3409C19.5704 13.5119 19.6012 13.6879 19.687 13.8388C20.1946 14.7312 20.3702 15.8083 20.1652 16.8108L20.1639 16.8172C19.9483 17.9205 19.2628 18.9293 18.3176 19.5473L18.3094 19.5528C17.0107 20.4264 15.2032 20.4784 13.8427 19.691C13.6908 19.6031 13.513 19.5712 13.34 19.6009C11.7068 19.8815 9.98762 19.6368 8.52102 18.8881L8.51669 18.8859C6.80678 18.0268 5.4398 16.5027 4.77297 14.7096L4.77175 14.7064C4.28964 13.4281 4.16675 12.0132 4.39738 10.6568C4.42647 10.4858 4.39536 10.31 4.30937 10.1593C3.79236 9.25347 3.62407 8.1535 3.84499 7.13389L3.84592 7.12952C4.06433 6.09168 4.69658 5.14028 5.5673 4.53035L5.576 4.52416ZM10.6649 2.87739C8.79663 1.91763 6.42018 2.06731 4.70233 3.30485C3.52592 4.13059 2.67618 5.40689 2.37853 6.81844C2.09922 8.11008 2.2793 9.48705 2.87822 10.6647C2.66194 12.1928 2.81935 13.7794 3.36766 15.2342C4.16677 17.3816 5.79463 19.1963 7.8412 20.2252C9.52679 21.0851 11.4706 21.3855 13.3319 21.1204C15.1458 22.0514 17.4379 21.9446 19.1426 20.8001C20.4182 19.9645 21.3406 18.612 21.6354 17.1082C21.8952 15.8344 21.7038 14.4882 21.1191 13.3356C21.3264 11.8893 21.1958 10.3924 20.7165 9.00391C19.977 6.83057 18.3955 4.97251 16.3769 3.88742C14.642 2.94271 12.6086 2.59806 10.6649 2.87739ZM9.75 9.97508C9.75 9.68445 9.87251 9.41277 10.1861 9.18862C10.5196 8.95026 11.1 8.75008 12 8.75008C12.6035 8.75008 13.1349 8.88997 13.5295 9.10098C13.9318 9.31608 14.1399 9.57363 14.2116 9.78253C14.3461 10.1743 14.7727 10.3829 15.1644 10.2485C15.5562 10.114 15.7648 9.68741 15.6304 9.29563C15.4001 8.62452 14.8622 8.11257 14.2368 7.77818C13.6036 7.43968 12.8255 7.25008 12 7.25008C10.9 7.25008 9.9804 7.49189 9.31388 7.96829C8.62749 8.45888 8.25 9.17471 8.25 9.97508C8.25 11.2216 9.15138 12.2855 10.3809 12.4909L11.8769 12.7399L13.3733 12.99C13.8748 13.0732 14.2439 13.5043 14.2499 14.0125C14.2465 14.2984 14.123 14.5656 13.8139 14.7865C13.4804 15.0249 12.9 15.2251 12 15.2251C11.397 15.2251 10.8657 15.0852 10.4708 14.8741C10.0682 14.6589 9.86002 14.4013 9.78839 14.1926C9.65394 13.8008 9.22734 13.5922 8.83555 13.7267C8.44377 13.8611 8.23516 14.2877 8.36961 14.6795C8.59998 15.3508 9.1383 15.8627 9.76369 16.197C10.3968 16.5354 11.175 16.7251 12 16.7251C13.1 16.7251 14.0196 16.4833 14.6861 16.0069C15.3566 15.5276 15.7324 14.8334 15.7494 14.0555C15.7498 14.0454 15.75 14.0353 15.75 14.0251V14.0001C15.75 13.9901 15.7498 13.9802 15.7494 13.9703C15.7235 12.7477 14.8309 11.7114 13.6187 11.5102L10.6276 11.0113C10.1211 10.9267 9.75 10.4885 9.75 9.97508Z" fill="#EBEBF5" fill-opacity="0.3"/>
</svg>
