<svg width="24" height="24" viewBox="0 0 24 24" fill="none" xmlns="http://www.w3.org/2000/svg">
<path d="M4.10355 11.5325C4.10355 11.5325 12.0645 8.23976 14.8255 7.08029C15.8839 6.61654 19.4733 5.13241 19.4733 5.13241C19.4733 5.13241 21.1299 4.48316 20.9918 6.05997C20.9458 6.70929 20.5777 8.98175 20.2095 11.4398C19.6573 14.9181 19.0591 18.7211 19.0591 18.7211C19.0591 18.7211 18.9671 19.7878 18.1848 19.9733C17.4025 20.1588 16.114 19.324 15.8839 19.1385C15.6998 18.9994 12.4326 16.9123 11.2362 15.892C10.9141 15.6138 10.5459 15.0573 11.2822 14.408C12.9388 12.8775 14.9175 10.976 16.114 9.77022C16.6662 9.21366 17.2184 7.9151 14.9175 9.49191C11.6504 11.7644 8.42916 13.8978 8.42916 13.8978C8.42916 13.8978 7.69286 14.3616 6.31237 13.9442C4.93181 13.5268 3.32121 12.9703 3.32121 12.9703C3.32121 12.9703 2.21686 12.2746 4.10355 11.5325Z" fill="#EBEBF5" fill-opacity="0.3"/>
</svg>
