<svg width="24" height="24" viewBox="0 0 24 24" fill="none" xmlns="http://www.w3.org/2000/svg">
<g clip-path="url(#clip0_11_309)">
<path fill-rule="evenodd" clip-rule="evenodd" d="M10.8478 23.5227L0.477334 13.1523C-0.159049 12.5159 -0.159049 11.4841 0.477334 10.8477L10.8478 0.477286C11.4842 -0.159095 12.5159 -0.159095 13.1523 0.477286C13.7887 1.11367 13.7887 2.14545 13.1523 2.78183L11.1274 4.80678C9.07423 6.85991 10.5283 10.3704 13.4319 10.3704L20.7187 10.3704C21.6187 10.3704 22.3483 11.1 22.3483 12C22.3483 12.9 21.6187 13.6296 20.7187 13.6296L13.4319 13.6296C10.5283 13.6296 9.07424 17.1401 11.1274 19.1932L13.1523 21.2182C13.7887 21.8546 13.7887 22.8863 13.1523 23.5227C12.5159 24.1591 11.4842 24.1591 10.8478 23.5227Z" fill="#9EC600"/>
</g>
<defs>
<clipPath id="clip0_11_309">
<rect width="24" height="24" fill="white"/>
</clipPath>
</defs>
</svg>
