<svg width="24" height="24" viewBox="0 0 24 24" fill="none" xmlns="http://www.w3.org/2000/svg">
<path d="M12 1.5C8.94015 1.5 6.5 4.01058 6.5 7.06129C6.5 7.88972 7.17157 8.56129 8 8.56129C8.82843 8.56129 9.5 7.88972 9.5 7.06129C9.5 5.62427 10.6398 4.5 12 4.5C13.3602 4.5 14.5 5.62427 14.5 7.06129C14.5 7.90783 14.0626 8.39769 13.1757 9.00484C12.0615 9.76514 10.5 11.0561 10.5 13.4923V14C10.5 14.8284 11.1716 15.5 12 15.5C12.8284 15.5 13.5 14.8284 13.5 14V13.4923C13.5 12.6112 13.9577 12.103 14.8674 11.4824L14.8692 11.4811C15.9577 10.7362 17.5 9.46348 17.5 7.06129C17.5 4.01058 15.0598 1.5 12 1.5Z" fill="#9EC600"/>
<path d="M12 22C13.1046 22 14 21.1046 14 20C14 18.8954 13.1046 18 12 18C10.8954 18 10 18.8954 10 20C10 21.1046 10.8954 22 12 22Z" fill="#9EC600"/>
</svg>
