<svg width="24" height="24" viewBox="0 0 24 24" fill="none" xmlns="http://www.w3.org/2000/svg">
<g clip-path="url(#clip0_11_324)">
<path fill-rule="evenodd" clip-rule="evenodd" d="M13.1505 0.477286L23.521 10.8477C24.1573 11.4841 24.1573 12.5159 23.521 13.1523L13.1505 23.5227C12.5141 24.1591 11.4824 24.1591 10.846 23.5227C10.2096 22.8863 10.2096 21.8546 10.846 21.2182L12.8709 19.1932C14.9241 17.1401 13.4699 13.6296 10.5664 13.6296L3.27958 13.6296C2.3796 13.6296 1.65002 12.9 1.65002 12C1.65002 11.1 2.3796 10.3704 3.27958 10.3704L10.5664 10.3704C13.4699 10.3704 14.9241 6.85991 12.8709 4.80678L10.846 2.78183C10.2096 2.14545 10.2096 1.11367 10.846 0.477286C11.4824 -0.159095 12.5141 -0.159095 13.1505 0.477286Z" fill="#9EC600"/>
</g>
<defs>
<clipPath id="clip0_11_324">
<rect width="24" height="24" fill="white"/>
</clipPath>
</defs>
</svg>
