<svg width="24" height="24" viewBox="0 0 24 24" fill="none" xmlns="http://www.w3.org/2000/svg">
<path d="M3.83972 1.51501C4.53008 1.51501 5.08972 2.07466 5.08972 2.76501V4.44053C6.90982 2.772 9.33439 1.75 12.0028 1.75C15.801 1.75 19.1065 3.81949 20.8767 6.87899C21.2225 7.47653 21.0183 8.24121 20.4208 8.58695C19.8232 8.93268 19.0586 8.72855 18.7128 8.13101C17.369 5.80851 14.8686 4.25 12.0028 4.25C10.0084 4.25 8.19108 5.00546 6.81732 6.24801H8.57372C9.26408 6.24801 9.82372 6.80766 9.82372 7.49801C9.82372 8.18837 9.26408 8.74801 8.57372 8.74801H4.26918C4.23291 8.7496 4.19651 8.74961 4.16008 8.74801H3.83972C3.14937 8.74801 2.58972 8.18837 2.58972 7.49801V2.76501C2.58972 2.07466 3.14937 1.51501 3.83972 1.51501Z" fill="#9EC600"/>
<path d="M4.25 12C4.25 11.3096 3.69036 10.75 3 10.75C2.30964 10.75 1.75 11.3096 1.75 12C1.75 17.6609 6.33908 22.25 12 22.25C17.6609 22.25 22.25 17.6609 22.25 12C22.25 11.3096 21.6904 10.75 21 10.75C20.3096 10.75 19.75 11.3096 19.75 12C19.75 16.2802 16.2802 19.75 12 19.75C7.71979 19.75 4.25 16.2802 4.25 12Z" fill="#9EC600"/>
</svg>
