<svg width="56" height="56" viewBox="0 0 56 56" fill="none" xmlns="http://www.w3.org/2000/svg">
<g filter="url(#filter0_ii_44_170)">
<path d="M25.4408 12.1837C26.6108 10.271 29.3891 10.271 30.5591 12.1837L33.992 17.7957C34.4081 18.4759 35.0778 18.9624 35.8532 19.1479L42.2514 20.6786C44.432 21.2003 45.2906 23.8426 43.833 25.5464L39.5565 30.5455C39.0382 31.1514 38.7824 31.9387 38.8456 32.7334L39.367 39.2915C39.5447 41.5266 37.297 43.1597 35.2262 42.3L29.1502 39.7776C28.4138 39.4719 27.5861 39.4719 26.8497 39.7776L20.7737 42.3C18.7029 43.1597 16.4552 41.5266 16.6329 39.2915L17.1543 32.7334C17.2175 31.9387 16.9617 31.1514 16.4434 30.5455L12.1669 25.5464C10.7093 23.8426 11.5679 21.2003 13.7485 20.6786L20.1467 19.1479C20.9221 18.9624 21.5918 18.4759 22.0079 17.7957L25.4408 12.1837Z" fill="#F0F0F3"/>
</g>
<defs>
<filter id="filter0_ii_44_170" x="6.44434" y="5.74915" width="43.1112" height="41.7839" filterUnits="userSpaceOnUse" color-interpolation-filters="sRGB">
<feFlood flood-opacity="0" result="BackgroundImageFix"/>
<feBlend mode="normal" in="SourceGraphic" in2="BackgroundImageFix" result="shape"/>
<feColorMatrix in="SourceAlpha" type="matrix" values="0 0 0 0 0 0 0 0 0 0 0 0 0 0 0 0 0 0 127 0" result="hardAlpha"/>
<feOffset dx="5" dy="5"/>
<feGaussianBlur stdDeviation="2.5"/>
<feComposite in2="hardAlpha" operator="arithmetic" k2="-1" k3="1"/>
<feColorMatrix type="matrix" values="0 0 0 0 1 0 0 0 0 1 0 0 0 0 1 0 0 0 0.7 0"/>
<feBlend mode="normal" in2="shape" result="effect1_innerShadow_44_170"/>
<feColorMatrix in="SourceAlpha" type="matrix" values="0 0 0 0 0 0 0 0 0 0 0 0 0 0 0 0 0 0 127 0" result="hardAlpha"/>
<feOffset dx="-5" dy="-5"/>
<feGaussianBlur stdDeviation="2.5"/>
<feComposite in2="hardAlpha" operator="arithmetic" k2="-1" k3="1"/>
<feColorMatrix type="matrix" values="0 0 0 0 0.682353 0 0 0 0 0.682353 0 0 0 0 0.752941 0 0 0 0.2 0"/>
<feBlend mode="normal" in2="effect1_innerShadow_44_170" result="effect2_innerShadow_44_170"/>
</filter>
</defs>
</svg>
