<svg width="16" height="24" viewBox="0 0 16 24" fill="none" xmlns="http://www.w3.org/2000/svg">
<path d="M9.64948 8.20566C9.1134 8.10283 8.57732 8.04113 8 8.04113C7.4433 8.04113 6.8866 8.10283 6.35052 8.20566C5.89038 8.29745 5.44721 8.43325 5.02378 8.60621C4.26303 8.91694 3.29897 8.41766 3.29897 7.5959V0.999999C3.29897 0.447714 2.85125 0 2.29897 0H1C0.447716 0 0 0.447715 0 1V16.0206V23C0 23.5523 0.447715 24 1 24H2.29897C2.85125 24 3.29897 23.5523 3.29897 23V22.437V16.0206C3.29897 14.5249 4.00303 13.2104 5.09091 12.3545C5.64192 11.921 6.35052 12.3925 6.35052 13.0936V20.401V23C6.35052 23.5523 6.79823 24 7.35052 24H8C8.5567 24 9.1134 23.9383 9.64948 23.8355C13.2784 23.0746 16 19.8663 16 16.0206C16 12.1542 13.2784 8.96658 9.64948 8.20566ZM10.8999 19.682C10.3506 20.1107 9.64948 19.6394 9.64948 18.9427V13.073C9.64948 12.3719 10.3581 11.9005 10.9091 12.3339C11.997 13.1898 12.701 14.5043 12.701 16C12.701 17.4999 11.993 18.829 10.8999 19.682Z" fill="url(#paint0_linear_615_489)"/>
<defs>
<linearGradient id="paint0_linear_615_489" x1="0.928433" y1="0.64865" x2="16.79" y2="3.03788" gradientUnits="userSpaceOnUse">
<stop stop-color="#3862F8"/>
<stop offset="0.197536" stop-color="#70C6BB"/>
<stop offset="0.309715" stop-color="#88EB77"/>
<stop offset="0.376161" stop-color="#ACED57"/>
<stop offset="0.455921" stop-color="#D1E435"/>
<stop offset="0.559937" stop-color="#EDCD32"/>
<stop offset="0.650594" stop-color="#ECB229"/>
<stop offset="0.779421" stop-color="#E06930"/>
<stop offset="1" stop-color="#DA1482"/>
</linearGradient>
</defs>
</svg>
